<svg id="visual" viewBox="0 0 900 600" width="900" height="600" xmlns="http://www.w3.org/2000/svg" xmlns:xlink="http://www.w3.org/1999/xlink" version="1.1"><rect x="0" y="0" width="900" height="600" fill="#002233"></rect><path d="M187 0L206.2 14.3C225.3 28.7 263.7 57.3 259.7 85.8C255.7 114.3 209.3 142.7 204.3 171.2C199.3 199.7 235.7 228.3 241.5 257C247.3 285.7 222.7 314.3 199 343C175.3 371.7 152.7 400.3 154.8 428.8C157 457.3 184 485.7 189.3 514.2C194.7 542.7 178.3 571.3 170.2 585.7L162 600L0 600L0 585.7C0 571.3 0 542.7 0 514.2C0 485.7 0 457.3 0 428.8C0 400.3 0 371.7 0 343C0 314.3 0 285.7 0 257C0 228.3 0 199.7 0 171.2C0 142.7 0 114.3 0 85.8C0 57.3 0 28.7 0 14.3L0 0Z" fill="#0066FF" stroke-linecap="round" stroke-linejoin="miter"></path></svg>